<svg xmlns="http://www.w3.org/2000/svg" width="96" height="96" viewBox="0 0 96 96" fill="none">
<defs>
  <clipPath id="clip">
    <rect width="96" height="96" rx="21" fill="#fff"/>
  </clipPath>
  <linearGradient id="bg" x1="0" y1="0" x2="0" y2="96" gradientUnits="userSpaceOnUse">
    <stop offset="0" stop-color="#381C04"/>
    <stop offset="1" stop-color="#B45309"/>
  </linearGradient>
  <radialGradient id="glow" cx="72" cy="17" r="75" gradientUnits="userSpaceOnUse">
    <stop offset="0" stop-color="#FBBF24" stop-opacity="0.30"/>
    <stop offset="1" stop-color="#FFFFFF" stop-opacity="0"/>
  </radialGradient>
  <linearGradient id="ink" x1="0" y1="20" x2="0" y2="76" gradientUnits="userSpaceOnUse">
    <stop offset="0" stop-color="#FFFFFF" stop-opacity="0.985"/>
    <stop offset="1" stop-color="#FFFFFF" stop-opacity="0.765"/>
  </linearGradient>
  <filter id="shadow" x="-20%" y="-10%" width="140%" height="140%" color-interpolation-filters="sRGB">
    <feDropShadow dx="0" dy="1.2" stdDeviation="1.3" flood-color="#000000" flood-opacity="0.30"/>
  </filter>
</defs>
<g clip-path="url(#clip)">
  <rect width="96" height="96" fill="url(#bg)"/>
  <rect width="96" height="96" fill="url(#glow)"/>
  <g transform="translate(7.993 7.993) scale(0.83349)" filter="url(#shadow)">
    <path d="M70.800 60.600A27.500 27.500 0 1 1 61.800 24.200" stroke="url(#ink)" stroke-width="9.5" stroke-linecap="butt" fill="none"/><path d="M35.5 42H66.5" stroke="url(#ink)" stroke-width="7.0" stroke-linecap="butt" fill="none"/><path d="M35.5 54H55.5" stroke="url(#ink)" stroke-width="7.0" stroke-linecap="butt" fill="none"/>
  </g>
  <g transform="translate(7.993 7.993) scale(0.83349)">
    <path d="M17.355 38.794A30.600 30.600 0 0 1 55.204 17.814" stroke="#FFFFFF" stroke-opacity="0.78" stroke-width="1.18" stroke-linecap="butt" fill="none"/><path d="M27.599 25.938A28.650 28.650 0 0 1 50.757 18.858" stroke="#FFFFFF" stroke-opacity="0.46" stroke-width="0.82" stroke-linecap="butt" fill="none"/><path d="M61.822 66.496A24.450 24.450 0 0 1 23.046 53.144" stroke="#2E1502" stroke-opacity="0.38" stroke-width="1.06" stroke-linecap="butt" fill="none"/><path d="M50.395 73.025A26.050 26.050 0 0 1 24.922 61.417" stroke="#2E1502" stroke-opacity="0.14" stroke-width="0.78" stroke-linecap="butt" fill="none"/><path d="M36.2 39.5H65.7" stroke="#FFFFFF" stroke-opacity="0.72" stroke-width="1.1" stroke-linecap="butt" fill="none"/><path d="M36.2 44.5H65.4" stroke="#2E1502" stroke-opacity="0.25" stroke-width="0.86" stroke-linecap="butt" fill="none"/><path d="M36.2 51.5H54.6" stroke="#FFFFFF" stroke-opacity="0.6" stroke-width="1.0" stroke-linecap="butt" fill="none"/><path d="M36.2 56.5H54.5" stroke="#2E1502" stroke-opacity="0.22" stroke-width="0.78" stroke-linecap="butt" fill="none"/>
  </g>
  <rect x="1.5" y="1.5" width="93" height="93" rx="19.5" stroke="#FFFFFF" stroke-opacity="0.24" stroke-width="1.5"/>
  <rect x="2.5" y="2.5" width="91" height="91" rx="18.5" stroke="#000000" stroke-opacity="0.18"/>
</g>
</svg>
